<?xml version="1.0" encoding="utf-8"?>
<!-- Generator: Adobe Illustrator 26.0.3, SVG Export Plug-In . SVG Version: 6.00 Build 0)  -->
<svg version="1.1" id="Layer_1" xmlns="http://www.w3.org/2000/svg" xmlns:xlink="http://www.w3.org/1999/xlink" x="0px" y="0px"
	 viewBox="0 0 15.9 72.1" style="enable-background:new 0 0 15.9 72.1;" xml:space="preserve">
<style type="text/css">
	.st0{fill:#101010;}
</style>
<g id="Layer_2_00000116935323364011217320000012768711367343377537_">
	<g id="Icons">
		<path class="st0" d="M15.9,7.9c0-4.4-3.5-7.9-7.9-7.9S0,3.5,0,7.9s3.5,7.9,7.9,7.9c0,0,0,0,0,0C12.3,15.8,15.8,12.3,15.9,7.9z"/>
		<circle class="st0" cx="7.9" cy="36.1" r="7.9"/>
		<path class="st0" d="M15.9,64.2c0-4.4-3.5-7.9-7.9-7.9S0,59.8,0,64.2s3.5,7.9,7.9,7.9c0,0,0,0,0,0C12.3,72.1,15.8,68.6,15.9,64.2
			C15.8,64.2,15.9,64.2,15.9,64.2z"/>
	</g>
</g>
</svg>
