<svg xmlns="http://www.w3.org/2000/svg" viewBox="0 0 346.25 426.38"><defs><style>.cls-1{fill:#303030;}</style></defs><g id="Layer_2" data-name="Layer 2"><g id="Layer_1-2" data-name="Layer 1"><path class="cls-1" d="M343.6,76.57C336.67,60,323.76,52.24,306.14,52c-14.84-.18-29.69,0-44.54,0-1.45,0-2.91-.12-4.55-.2,0-3.86.06-7.18,0-10.51-.46-23.7-16.14-40.61-39.12-41C188.1-.18,158.26,0,128.44.22c-20.82.15-37.29,16-38.75,35.57-.39,5.32-.51,10.67-.77,16.18H85.23c-17,.17-34.13-.16-51.16.65C16.88,53.44,2.69,67.9.3,85.66c-2.21,16.44,7.94,33.79,23.47,39.56,3.48,1.3,4.71,2.84,4.7,6.72q-.21,118.6-.1,237.2c0,2.36,0,4.72.1,7.08,1,22.37,15.35,41.56,35.72,47.87,2.74.85,5.53,1.53,8.31,2.29H274a14.73,14.73,0,0,1,2.24-.82A48.15,48.15,0,0,0,301.1,413c12.26-11.63,16.9-26.28,16.9-42.79q0-119-.12-238c0-4,1.23-5.68,4.87-7.06C341.51,118,351.32,95,343.6,76.57Zm-233.74-41c1.54-9.55,9.4-15.36,19.83-15.38q43.5-.09,87,0a21.89,21.89,0,0,1,6.14.8c7.95,2.33,12.86,7.63,13.81,15.89.54,4.76.09,9.63.09,14.92h-127C109.72,46.2,109,40.74,109.86,35.52ZM298,370.3c0,8.31-1.47,16.25-6.44,23.23-6,8.41-14.16,12.81-24.39,12.83q-94.08.12-188.16,0c-15.32,0-27.4-11.1-29.92-26.64a56.61,56.61,0,0,1-.7-9.11q-.06-119,0-238.06v-4.38H297.79c.07,1.58.2,3,.2,4.5Q298,251.48,298,370.3Zm12.15-262.64a58.78,58.78,0,0,1-6.23.27q-65.33,0-130.67,0-65.53,0-131.08,0a38,38,0,0,1-8.67-.71,17.79,17.79,0,0,1,1.83-34.8A41.64,41.64,0,0,1,41.53,72q131.72,0,263.42,0c12.4,0,20.07,6.14,20.94,16.68A17.52,17.52,0,0,1,310.14,107.66Z"/><path class="cls-1" d="M124.15,167.9a23,23,0,0,0-.59-6.16,8.92,8.92,0,0,0-8.38-6.9c-4.31-.39-7.73,1.31-9.56,5.17a16.3,16.3,0,0,0-1.35,6.82q-.1,92.13,0,184.27a19.37,19.37,0,0,0,.67,4.91,9.08,9.08,0,0,0,8,6.91c3.88.59,7.43-.68,9.26-4.14a18.39,18.39,0,0,0,2-8.27c.14-30.64.09-61.28.09-91.93Q124.18,213.25,124.15,167.9Z"/><path class="cls-1" d="M172,154.86c-5.7.56-8.84,4.75-8.84,12q0,46,0,91.92,0,45.56,0,91.1a26.7,26.7,0,0,0,.36,5.37,9.81,9.81,0,0,0,9.46,7.87,9.7,9.7,0,0,0,9.57-7.66,23.85,23.85,0,0,0,.55-5.34q0-91.29,0-182.6a22.67,22.67,0,0,0-.5-4.93A9.38,9.38,0,0,0,172,154.86Z"/><path class="cls-1" d="M231.86,154.73c-6.4.12-9.74,4.63-9.74,13.26q0,45.54,0,91.09,0,45.33,0,90.67c0,8.64,3.31,13.17,9.71,13.34s10.27-4.67,10.27-13.31q0-90.88,0-181.76C242.1,159.38,238.41,154.62,231.86,154.73Z"/></g></g></svg>