<svg xmlns="http://www.w3.org/2000/svg" viewBox="0 0 383.32 383.27"><defs><style>.cls-1{fill:#303030;}</style></defs><g id="Layer_2" data-name="Layer 2"><g id="Layer_1-2" data-name="Layer 1"><path class="cls-1" d="M321.87,189.52c0-4.11.11-8.23,0-12.34a11.19,11.19,0,0,0-22.21-1.78,26.08,26.08,0,0,0-.21,4.85v159.4c0,13.78-7.43,21.16-21.3,21.16H43.87c-14.09,0-21.41-7.33-21.41-21.42V105.53q0-21.65,21.53-21.67,80.44,0,160.9,0c7.21,0,12.26-4.81,12.18-11.37-.09-6.28-5-11-11.72-11-55,0-110-.15-165,.09-14.92.07-26.65,7.1-34.25,19.94C3.23,86.26,2,92,0,97.33v250c.64,2.37,1.14,4.8,2,7.11,5.43,15.48,16.15,24.94,32.29,28.17a9.66,9.66,0,0,1,1.69.65h250c.32-.18.62-.49.95-.53,17.42-2.06,35.25-18.26,35.09-42.79C321.63,289.81,321.87,239.67,321.87,189.52Z"/><path class="cls-1" d="M374.78,28C368.21,21.38,361.55,14.81,355,8.18a26.24,26.24,0,0,0-38.13.06q-84,84-168,168.13a16.27,16.27,0,0,0-4.13,7.7C141.14,201,137.85,218,134.53,235c-1.76,9,4.74,15.48,13.76,13.73,16.27-3.17,32.48-6.58,48.76-9.62a21.65,21.65,0,0,0,11.85-6.45q45.15-45.36,90.47-90.55,37.71-37.71,75.41-75.43C386.19,55.22,386.14,39.55,374.78,28Zm-47.09,54q-66.24,66.26-132.52,132.49c-1,1-2.22,2.26-3.52,2.54-10.33,2.24-20.7,4.26-32,6.53,1.62-8.24,3.53-15.6,4.41-23.08s4.52-12.59,9.67-17.7Q237.47,119.6,300.79,56a25.13,25.13,0,0,0,2.48-3.4l26.86,26.92C329.5,80.15,328.62,81.14,327.69,82.07Zm31.74-31.79c-4.16,4.28-8.37,8.5-12.6,12.78L320.38,36.53c4.21-4.24,8.52-8.69,13-13,1.69-1.63,3.67-1.41,5.33.24q10.47,10.43,20.87,20.89C361.37,46.49,361.17,48.5,359.43,50.28Z"/></g></g></svg>